<svg id="visual" viewBox="0 0 900 600" width="900" height="600" xmlns="http://www.w3.org/2000/svg" xmlns:xlink="http://www.w3.org/1999/xlink" version="1.1"><rect x="0" y="0" width="900" height="600" fill="#001220"></rect><path d="M0 341L21.5 337C43 333 86 325 128.8 321.2C171.7 317.3 214.3 317.7 257.2 330.2C300 342.7 343 367.3 385.8 365.8C428.7 364.3 471.3 336.7 514.2 332.3C557 328 600 347 642.8 362.8C685.7 378.7 728.3 391.3 771.2 382.3C814 373.3 857 342.7 878.5 327.3L900 312L900 601L878.5 601C857 601 814 601 771.2 601C728.3 601 685.7 601 642.8 601C600 601 557 601 514.2 601C471.3 601 428.7 601 385.8 601C343 601 300 601 257.2 601C214.3 601 171.7 601 128.8 601C86 601 43 601 21.5 601L0 601Z" fill="#aba9ff"></path><path d="M0 417L21.5 411.8C43 406.7 86 396.3 128.8 387.5C171.7 378.7 214.3 371.3 257.2 367.7C300 364 343 364 385.8 359.5C428.7 355 471.3 346 514.2 344.7C557 343.3 600 349.7 642.8 367C685.7 384.3 728.3 412.7 771.2 423.8C814 435 857 429 878.5 426L900 423L900 601L878.5 601C857 601 814 601 771.2 601C728.3 601 685.7 601 642.8 601C600 601 557 601 514.2 601C471.3 601 428.7 601 385.8 601C343 601 300 601 257.2 601C214.3 601 171.7 601 128.8 601C86 601 43 601 21.5 601L0 601Z" fill="#9b99ff"></path><path d="M0 438L21.5 442.2C43 446.3 86 454.7 128.8 446.5C171.7 438.3 214.3 413.7 257.2 406.2C300 398.7 343 408.3 385.8 412C428.7 415.7 471.3 413.3 514.2 412.8C557 412.3 600 413.7 642.8 415.2C685.7 416.7 728.3 418.3 771.2 426.2C814 434 857 448 878.5 455L900 462L900 601L878.5 601C857 601 814 601 771.2 601C728.3 601 685.7 601 642.8 601C600 601 557 601 514.2 601C471.3 601 428.7 601 385.8 601C343 601 300 601 257.2 601C214.3 601 171.7 601 128.8 601C86 601 43 601 21.5 601L0 601Z" fill="#8b89ff"></path><path d="M0 469L21.5 466.2C43 463.3 86 457.7 128.8 453.8C171.7 450 214.3 448 257.2 453.7C300 459.3 343 472.7 385.8 476.2C428.7 479.7 471.3 473.3 514.2 476C557 478.7 600 490.3 642.8 494.8C685.7 499.3 728.3 496.7 771.2 488.3C814 480 857 466 878.5 459L900 452L900 601L878.5 601C857 601 814 601 771.2 601C728.3 601 685.7 601 642.8 601C600 601 557 601 514.2 601C471.3 601 428.7 601 385.8 601C343 601 300 601 257.2 601C214.3 601 171.7 601 128.8 601C86 601 43 601 21.5 601L0 601Z" fill="#7c7afb"></path><path d="M0 542L21.5 531.2C43 520.3 86 498.7 128.8 496.7C171.7 494.7 214.3 512.3 257.2 522.7C300 533 343 536 385.8 538.5C428.7 541 471.3 543 514.2 533C557 523 600 501 642.8 490.5C685.7 480 728.3 481 771.2 486.7C814 492.3 857 502.7 878.5 507.8L900 513L900 601L878.5 601C857 601 814 601 771.2 601C728.3 601 685.7 601 642.8 601C600 601 557 601 514.2 601C471.3 601 428.7 601 385.8 601C343 601 300 601 257.2 601C214.3 601 171.7 601 128.8 601C86 601 43 601 21.5 601L0 601Z" fill="#6f6bf3"></path><path d="M0 565L21.5 562.8C43 560.7 86 556.3 128.8 553.7C171.7 551 214.3 550 257.2 549.2C300 548.3 343 547.7 385.8 544.8C428.7 542 471.3 537 514.2 541.2C557 545.3 600 558.7 642.8 565.5C685.7 572.3 728.3 572.7 771.2 573C814 573.3 857 573.7 878.5 573.8L900 574L900 601L878.5 601C857 601 814 601 771.2 601C728.3 601 685.7 601 642.8 601C600 601 557 601 514.2 601C471.3 601 428.7 601 385.8 601C343 601 300 601 257.2 601C214.3 601 171.7 601 128.8 601C86 601 43 601 21.5 601L0 601Z" fill="#625ceb"></path></svg>